REM DIRINDEX 1\2,1\3,1\4,1\5
REM DIRNAME cjc005,folder01,folder02,folder03,folder04
TITLE ""
FILE "P1Q_t_1180-1189.mp3" MP3
  TRACK 01 AUDIO
    TITLE "3:cjc005_4446"
    INDEX 01 00:00:00
  TRACK 02 AUDIO
    TITLE "0:"
    INDEX 01 00:00:64
  TRACK 03 AUDIO
    TITLE "4:cjc005_4447"
    INDEX 01 00:01:11
  TRACK 04 AUDIO
    TITLE "0:"
    INDEX 01 00:02:34
  TRACK 05 AUDIO
    TITLE "5:cjc005_4448"
    INDEX 01 00:02:61
  TRACK 06 AUDIO
    TITLE "0:"
    INDEX 01 00:07:70
  TRACK 07 AUDIO
    TITLE "3:cjc005_4449"
    INDEX 01 00:08:48
  TRACK 08 AUDIO
    TITLE "0:"
    INDEX 01 00:09:71
  TRACK 09 AUDIO
    TITLE "4:cjc005_4450"
    INDEX 01 00:10:19
  TRACK 10 AUDIO
    TITLE "0:"
    INDEX 01 00:12:22
  TRACK 11 AUDIO
    TITLE "5:cjc005_4451"
    INDEX 01 00:12:42
  TRACK 12 AUDIO
    TITLE "0:"
    INDEX 01 00:17:10
  TRACK 13 AUDIO
    TITLE "3:cjc005_4452"
    INDEX 01 00:17:67
  TRACK 14 AUDIO
    TITLE "0:"
    INDEX 01 00:18:74
  TRACK 15 AUDIO
    TITLE "4:cjc005_4453"
    INDEX 01 00:19:30
  TRACK 16 AUDIO
    TITLE "0:"
    INDEX 01 00:20:43
  TRACK 17 AUDIO
    TITLE "5:cjc005_4454"
    INDEX 01 00:20:65
  TRACK 18 AUDIO
    TITLE "0:"
    INDEX 01 00:23:34
  TRACK 19 AUDIO
    TITLE "3:cjc005_4455"
    INDEX 01 00:24:16
  TRACK 20 AUDIO
    TITLE "0:"
    INDEX 01 00:25:23
  TRACK 21 AUDIO
    TITLE "4:cjc005_4456"
    INDEX 01 00:25:45
  TRACK 22 AUDIO
    TITLE "0:"
    INDEX 01 00:26:56
  TRACK 23 AUDIO
    TITLE "5:cjc005_4457"
    INDEX 01 00:27:04
  TRACK 24 AUDIO
    TITLE "0:"
    INDEX 01 00:30:61
  TRACK 25 AUDIO
    TITLE "3:cjc005_4458"
    INDEX 01 00:31:43
  TRACK 26 AUDIO
    TITLE "0:"
    INDEX 01 00:32:52
  TRACK 27 AUDIO
    TITLE "4:cjc005_4459"
    INDEX 01 00:33:07
  TRACK 28 AUDIO
    TITLE "0:"
    INDEX 01 00:35:04
  TRACK 29 AUDIO
    TITLE "5:cjc005_4460"
    INDEX 01 00:35:27
  TRACK 30 AUDIO
    TITLE "0:"
    INDEX 01 00:40:01
  TRACK 31 AUDIO
    TITLE "3:cjc005_4461"
    INDEX 01 00:40:54
  TRACK 32 AUDIO
    TITLE "0:"
    INDEX 01 00:41:67
  TRACK 33 AUDIO
    TITLE "4:cjc005_4462"
    INDEX 01 00:42:18
  TRACK 34 AUDIO
    TITLE "0:"
    INDEX 01 00:43:50
  TRACK 35 AUDIO
    TITLE "5:cjc005_4463"
    INDEX 01 00:43:74
  TRACK 36 AUDIO
    TITLE "0:"
    INDEX 01 00:48:10
  TRACK 37 AUDIO
    TITLE "3:cjc005_4464"
    INDEX 01 00:48:61
  TRACK 38 AUDIO
    TITLE "0:"
    INDEX 01 00:50:07
  TRACK 39 AUDIO
    TITLE "4:cjc005_4465"
    INDEX 01 00:50:31
  TRACK 40 AUDIO
    TITLE "0:"
    INDEX 01 00:51:67
  TRACK 41 AUDIO
    TITLE "5:cjc005_4466"
    INDEX 01 00:52:20
  TRACK 42 AUDIO
    TITLE "0:"
    INDEX 01 00:56:65
  TRACK 43 AUDIO
    TITLE "3:cjc005_4467"
    INDEX 01 00:57:45
  TRACK 44 AUDIO
    TITLE "0:"
    INDEX 01 00:58:58
  TRACK 45 AUDIO
    TITLE "4:cjc005_4468"
    INDEX 01 00:59:08
  TRACK 46 AUDIO
    TITLE "0:"
    INDEX 01 01:00:49
  TRACK 47 AUDIO
    TITLE "5:cjc005_4469"
    INDEX 01 01:00:72
  TRACK 48 AUDIO
    TITLE "0:"
    INDEX 01 01:04:07
  TRACK 49 AUDIO
    TITLE "3:cjc005_4470"
    INDEX 01 01:04:66
  TRACK 50 AUDIO
    TITLE "0:"
    INDEX 01 01:05:73
  TRACK 51 AUDIO
    TITLE "4:cjc005_4471"
    INDEX 01 01:06:30
  TRACK 52 AUDIO
    TITLE "0:"
    INDEX 01 01:07:37
  TRACK 53 AUDIO
    TITLE "5:cjc005_4472"
    INDEX 01 01:07:68
  TRACK 54 AUDIO
    TITLE "0:"
    INDEX 01 01:11:23
  TRACK 55 AUDIO
    TITLE "3:cjc005_4473"
    INDEX 01 01:12:07
  TRACK 56 AUDIO
    TITLE "0:"
    INDEX 01 01:13:22
  TRACK 57 AUDIO
    TITLE "4:cjc005_4474"
    INDEX 01 01:13:53
  TRACK 58 AUDIO
    TITLE "0:"
    INDEX 01 01:15:07
  TRACK 59 AUDIO
    TITLE "5:cjc005_4475"
    INDEX 01 01:15:29
  TRACK 60 AUDIO
    TITLE "0:"
    INDEX 01 01:19:50
